<svg version="1.1" id="Ebene_1" xmlns:x="ns_extend;" xmlns:i="ns_ai;" xmlns:graph="ns_graphs;" xmlns="http://www.w3.org/2000/svg" xmlns:xlink="http://www.w3.org/1999/xlink" x="0px" y="0px" viewBox="0 0 264.6 226.8" style="enable-background:new 0 0 264.6 226.8;" xml:space="preserve">
 <style type="text/css">
  .st0{fill:#6D6E71;}
 </style>
 <metadata>
  <sfw xmlns="ns_sfw;">
   <slices>
   </slices>
   <sliceSourceBounds bottomLeftOrigin="true" height="226.8" width="264.6" x="340.3" y="139.4">
   </sliceSourceBounds>
  </sfw>
 </metadata>
 <g>
  <g>
   <path class="st0" d="M88.6,81.8c0,10.7,4.1,20.5,10.9,27.8l-17.1,34c0.4,0.3,0.9,0.7,1.4,1l45.7-66.9l45.7,66.9
			c0.5-0.3,0.9-0.7,1.3-1l-17.1-34c6.8-7.3,10.9-17.1,10.9-27.8c0-22.6-18.3-40.9-40.9-40.9C106.9,40.9,88.6,59.2,88.6,81.8
			 M47.7,81.8C47.7,36.6,84.3,0,129.5,0c45.2,0,81.8,36.6,81.8,81.8c0,45.2-36.6,81.8-81.8,81.8C84.3,163.6,47.7,127,47.7,81.8">
   </path>
  </g>
  <g>
   <path class="st0" d="M0.4,225.1l0.9-8.8c2.7,1.5,6.5,2.6,10.9,2.6c3.4,0,6.6-0.7,6.6-3.9c0-7.4-18.8-2.7-18.8-17.2
			c0-9.6,9.3-12.2,17.3-12.2c3.8,0,7.6,0.6,10.3,1.5l-0.7,8.2c-2.7-1.3-5.8-1.8-8.8-1.8c-2.7,0-7.1,0.2-7.1,3.7
			c0,6.4,18.8,2.1,18.8,16.5c0,10.3-8.7,13.1-17.5,13.1C8.5,226.8,3.9,226.2,0.4,225.1z">
   </path>
   <path class="st0" d="M32.8,211.3c0-9.9,7.5-15.5,17.3-15.5c3.1,0,5.8,0.5,8.1,1.6l-0.7,7.5c-1.9-1.1-3.8-1.7-6.2-1.7
			c-4.4,0-7.9,3.1-7.9,8.2c0,4.7,4,7.8,8.4,7.8c2.3,0,4.7-0.5,6.4-1.4l0.2,7.6c-2.6,0.9-5.6,1.3-8.4,1.3
			C40.3,226.8,32.8,221.1,32.8,211.3z">
   </path>
   <path class="st0" d="M83.9,226.1v-14.4c0-5.6-1.9-7.5-4.7-7.5c-4.2,0-6.4,2.9-6.4,9.3v12.5H62.5v-42.7h10.2v17.4h0.1
			c2.2-3.1,5.5-5.1,9.9-5.1c8.1,0,11.3,5.7,11.3,11.8v18.5H83.9z">
   </path>
   <path class="st0" d="M100.2,226.1v-29.7h10.3v29.7H100.2z M100.2,191.6v-7.5h10.3v7.5H100.2z">
   </path>
   <path class="st0" d="M138.3,226.1v-14.4c0-5.6-1.9-7.5-4.7-7.5c-4.2,0-6.4,2.9-6.4,9.3v12.5h-10.3v-29.7h9.3v5.5h0.1
			c2-4.3,6.2-6.2,10.8-6.2c8.1,0,11.3,5.7,11.3,11.8v18.5H138.3z">
   </path>
   <path class="st0" d="M185.9,226.1h-9.5v-5.3h-0.1c-1.3,3.3-5.5,6-10.2,6c-8.8,0-13.6-7.3-13.6-16.1c0-7.3,4.5-15,12.7-15
			c4.1,0,7.6,1.1,10.2,4.5h0.1v-16.9h10.3V226.1z M163.2,210.9c0,4.7,2.3,8,6.2,8c3.4,0,6.3-3.2,6.3-7.6c0-4.5-2.5-7.7-6.3-7.7
			C165.4,203.6,163.2,207,163.2,210.9z">
   </path>
   <rect x="192.9" y="183.4" class="st0" width="10.3" height="42.7">
   </rect>
   <path class="st0" d="M207.8,211.2c0-9.8,6.7-15.5,15.9-15.5c11,0,15,7.8,15,16.6v1.9h-20.5c0.6,4.1,3.7,5.7,8.7,5.7
			c2.8,0,6-0.6,9.1-2.3v7.2c-3.3,1.3-7.1,1.9-10.9,1.9C215.3,226.8,207.8,221,207.8,211.2z M218.1,208.4h11.4c0-3.4-1.6-6.2-5.7-6.2
			C220.1,202.2,218.3,205,218.1,208.4z">
   </path>
   <path class="st0" d="M242.9,226.1v-29.7h9.3v5.5h0.1c1.8-3.8,4.3-6.2,8.8-6.2c1.2,0,2.4,0.2,3.5,0.3l-0.5,8.5
			c-1.1-0.3-2.3-0.3-3.5-0.3c-4.8,0-7.5,3.5-7.5,9.3v12.5H242.9z">
   </path>
  </g>
 </g>
</svg>