<svg version="1.1" id="Layer_1" xmlns:x="ns_extend;" xmlns:i="ns_ai;" xmlns:graph="ns_graphs;" xmlns="http://www.w3.org/2000/svg" xmlns:xlink="http://www.w3.org/1999/xlink" x="0px" y="0px" viewBox="0 0 215.4 72" style="enable-background:new 0 0 215.4 72;" xml:space="preserve">
 <style type="text/css">
  .st0{fill:#041E42;}
 </style>
 <metadata>
  <sfw xmlns="ns_sfw;">
   <slices>
   </slices>
   <sliceSourceBounds bottomLeftOrigin="true" height="72" width="215.4" x="92.6" y="-236.2">
   </sliceSourceBounds>
  </sfw>
 </metadata>
 <g>
  <path class="st0" d="M20.7,36c0-15.3,8.1-18.9,13.4-18.9c5.3,0,13.4,3.6,13.4,18.9c0,15.3-8.1,18.9-13.4,18.9
		C28.8,54.9,20.7,51.3,20.7,36 M0,36c0,21,13.7,36,34.1,36c20.4,0,34.1-15,34.1-36c0-21-13.7-36-34.1-36C13.7,0,0,15,0,36">
  </path>
  <polygon class="st0" points="86.5,19.3 67.7,19.3 67.7,1.6 126,1.6 126,19.3 107.2,19.3 107.2,70.4 86.5,70.4 	">
  </polygon>
  <rect x="130.5" y="1.6" class="st0" width="20.7" height="68.7">
  </rect>
  <path class="st0" d="M175.5,47.3c0,1.7,0.3,3.3,0.8,4.5c1.5,4.2,6,5,9.9,5c3.4,0,8.6-1.2,8.6-6.3c0-3.6-2.9-4.5-14.5-7.9
		c-10.6-3.1-22.8-6.1-22.8-19.9C157.4,6.8,170.7,0,184.5,0c14.6,0,27.5,5.7,28.1,22.4H193c0.4-2.6-0.8-4.3-2.5-5.5
		c-1.7-1.2-4-1.7-6.1-1.7c-2.8,0-7.4,0.8-7.4,4.6c0.4,4.9,10,6,19.5,8.7c9.5,2.7,18.9,7.2,18.9,19.8c0,17.9-16.1,23.7-31.1,23.7
		c-7.6,0-29.4-2.8-29.6-24.7H175.5z">
  </path>
 </g>
</svg>